PathFileType	4	(X/Y/Z)	/Users/itak/Documents/Research/Walk-IL/dataset/trc/00350_00011.trc
DataRate	CameraRate	NumFrames	NumMarkers	Units	OrigDataRate	OrigDataStartFrame	OrigNumFrames
100.000000	100.000000	4	53	mm	100.000000	0	730
Frame#	Time	RPSI			LPSI			STRN			T10			C7			CLAV			RBAK			LBAK			LSHO			LUPA			LAEL			LAOL			LWTS			LWPS			LFRA			LIFD			LHPS			LHTS			RSHO			RUPA			RAEL			RAOL			RWTS			RWPS			RFRA			RIFD			RHTS			RHPS			RBHD			LFHD			RFHD			LBHD			LHIP			RHIP			RASI			LASI			LKNE			LTHI			LANK			LTIP			LTOE			LMT1			LMT5			LHEE			RKNE			RANK			RTIP			RTOE			RMT1			RMT5			RHEE			L3			RTHI			
		X1	Y1	Z1	X2	Y2	Z2	X3	Y3	Z3	X4	Y4	Z4	X5	Y5	Z5	X6	Y6	Z6	X7	Y7	Z7	X8	Y8	Z8	X9	Y9	Z9	X10	Y10	Z10	X11	Y11	Z11	X12	Y12	Z12	X13	Y13	Z13	X14	Y14	Z14	X15	Y15	Z15	X16	Y16	Z16	X17	Y17	Z17	X18	Y18	Z18	X19	Y19	Z19	X20	Y20	Z20	X21	Y21	Z21	X22	Y22	Z22	X23	Y23	Z23	X24	Y24	Z24	X25	Y25	Z25	X26	Y26	Z26	X27	Y27	Z27	X28	Y28	Z28	X29	Y29	Z29	X30	Y30	Z30	X31	Y31	Z31	X32	Y32	Z32	X33	Y33	Z33	X34	Y34	Z34	X35	Y35	Z35	X36	Y36	Z36	X37	Y37	Z37	X38	Y38	Z38	X39	Y39	Z39	X40	Y40	Z40	X41	Y41	Z41	X42	Y42	Z42	X43	Y43	Z43	X44	Y44	Z44	X45	Y45	Z45	X46	Y46	Z46	X47	Y47	Z47	X48	Y48	Z48	X49	Y49	Z49	X50	Y50	Z50	X51	Y51	Z51	X52	Y52	Z52	X53	Y53	Z53	

1	0	489.3849792480469	975.8622436523438	928.2527465820312	495.8396911621094	975.5062866210938	1056.89111328125	272.3244934082031	1222.368286132812	1016.220153808594	510.8505249023438	1151.665283203125	995.5215454101562	474.37109375	1399.645141601562	1020.482849121094	317.6715393066406	1347.72705078125	1020.550109863281	518.8285522460938	1262.803833007812	943.801025390625	487.5834655761719	1359.080322265625	1120.830322265625	406.262939453125	1377.476440429688	1181.60302734375	421.8195190429688	1254.804321289062	1245.04443359375	396.9769592285156	1050.813720703125	1253.259643554688	455.589599609375	1037.2626953125	1193.519897460938	298.2041320800781	809.3047485351562	1208.932006835938	339.0863342285156	797.2577514648438	1264.293090820312	380.7642517089844	947.1609497070312	1259.13623046875	303.3293762207031	642.6947021484375	1211.290283203125	340.7291564941406	726.8140869140625	1257.166015625	285.8193054199219	731.1934814453125	1224.958984375	409.1253662109375	1393.205322265625	859.3294067382812	414.9595031738281	1329.605834960938	792.6939086914062	400.8507080078125	1060.712768554688	756.5166625976562	453.1936340332031	1052.617553710938	835.285888671875	297.347412109375	832.0631103515625	812.3474731445312	325.4602661132812	818.8728637695312	742.375244140625	375.0527038574219	993.3024291992188	751.80859375	288.8717956542969	660.4082641601562	806.1768798828125	267.2772216796875	730.762451171875	798.710693359375	311.97900390625	734.945556640625	743.3755493164062	425.3815307617188	1609.978637695312	944.5238037109375	257.1787414550781	1615.802001953125	1067.47119140625	264.369384765625	1617.641357421875	966.6277465820312	442.3794555664062	1603.538696289062	1088.653442382812	415.3719482421875	922.7147827148438	1168.241333007812	404.7358703613281	922.064453125	824.134765625	299.371826171875	952.9867553710938	871.7447509765625	289.666259765625	946.1812744140625	1112.09423828125	387.2375183105469	468.57373046875	1183.919189453125	374.329833984375	603.3482055664062	1182.804077148438	455.1374206542969	44.83053970336914	1194.285278320312	426.0529174804688	253.6106109619141	1201.77197265625	243.8233032226562	42.60309982299805	1147.2880859375	308.5396423339844	35.01198577880859	1103.102661132812	328.5896606445312	42.88993835449219	1215.81396484375	480.8531188964844	39.60064697265625	1123.066528320312	382.5494995117188	462.2729797363281	822.3582763671875	434.8208923339844	48.84956359863281	816.4531860351562	377.8082885742188	345.869140625	823.646240234375	246.0076904296875	48.09176635742188	876.3384399414062	302.7715759277344	35.60026168823242	913.659423828125	332.2073059082031	37.27198791503906	800.7262573242188	487.6858825683594	46.64219284057617	861.2171630859375	495.3505554199219	1032.084838867188	987.095458984375	333.350830078125	720.7830200195312	811.6304931640625	
2	0.01	489.225341796875	975.833740234375	928.41796875	495.649658203125	975.4703979492188	1057.088256835938	272.3017272949219	1222.353881835938	1016.217102050781	510.7249145507812	1151.563598632812	995.6563110351562	474.3217163085938	1399.581909179688	1020.619262695312	317.6118774414062	1347.73486328125	1020.569519042969	518.7962646484375	1262.779052734375	943.9286499023438	487.5065307617188	1359.02392578125	1120.939575195312	406.1963806152344	1377.451049804688	1181.659057617188	421.5834350585938	1254.782104492188	1245.087524414062	396.6782531738281	1050.78759765625	1253.295288085938	455.2963256835938	1037.240234375	1193.598510742188	297.8368225097656	809.3121948242188	1208.806640625	338.7724914550781	797.1655883789062	1264.10546875	380.3468017578125	947.1072998046875	1259.072998046875	302.9745483398438	642.7565307617188	1211.608764648438	340.3076477050781	726.9561157226562	1257.214111328125	285.2699584960938	731.1911010742188	1224.77490234375	409.164306640625	1393.177612304688	859.377685546875	415.0135192871094	1329.583129882812	792.7095336914062	400.7895812988281	1060.659057617188	756.6054077148438	453.0691833496094	1052.510375976562	835.448486328125	297.1565856933594	832.0816040039062	812.427978515625	325.2715759277344	818.8723754882812	742.5164794921875	374.9560241699219	993.2472534179688	751.9177856445312	288.4598999023438	660.4381713867188	806.2490234375	266.8744201660156	730.8512573242188	798.851318359375	311.7010498046875	734.9456176757812	743.5352172851562	425.4063415527344	1609.978759765625	944.543701171875	257.1482238769531	1615.784545898438	1067.424072265625	264.3988647460938	1617.604858398438	966.5692138671875	442.3500366210938	1603.527221679688	1088.679809570312	415.1549377441406	922.68212890625	1168.335327148438	404.64794921875	922.05029296875	824.2659912109375	299.2807312011719	952.97509765625	871.8113403320312	289.5914001464844	946.1011962890625	1112.101196289062	387.5145568847656	468.628662109375	1183.896484375	374.3958435058594	603.3754272460938	1182.875366210938	455.1407165527344	44.83200073242188	1194.275024414062	426.3068542480469	253.6661071777344	1201.729248046875	243.8237762451172	42.59668350219727	1147.291137695312	308.5375366210938	35.00621795654297	1103.093139648438	328.59326171875	42.88970947265625	1215.812744140625	480.856689453125	39.58586120605469	1123.055297851562	382.5755310058594	462.27734375	822.42236328125	434.8190002441406	48.84953308105469	816.455810546875	377.8739013671875	345.9016723632812	823.6644897460938	245.9563140869141	48.00767517089844	876.372314453125	302.7434997558594	35.53712463378906	913.6720581054688	332.2025756835938	37.27801895141602	800.7571411132812	487.6804809570312	46.65451049804688	861.2315673828125	495.1889343261719	1032.005249023438	987.1950073242188	332.7488098144531	721.0157470703125	811.6740112304688	
3	0.02	489.0299377441406	975.8005981445312	928.6133422851562	495.4244995117188	975.4254760742188	1057.328491210938	272.2681884765625	1222.335327148438	1016.213928222656	510.5568237304688	1151.442260742188	995.8313598632812	474.257568359375	1399.510986328125	1020.782165527344	317.5322570800781	1347.743774414062	1020.598510742188	518.7378540039062	1262.749267578125	944.1032104492188	487.4105529785156	1358.963623046875	1121.069946289062	406.1071166992188	1377.422119140625	1181.726684570312	421.2789611816406	1254.74365234375	1245.141479492188	396.3103942871094	1050.754272460938	1253.338256835938	454.9400329589844	1037.208374023438	1193.69482421875	297.3414611816406	809.3297729492188	1208.658813476562	338.3258056640625	797.0919189453125	1263.896606445312	379.8157958984375	947.03955078125	1259.00146484375	302.3722534179688	642.934326171875	1211.768798828125	339.7186584472656	727.0797729492188	1257.238037109375	284.5935668945312	731.21484375	1224.556274414062	409.2063293457031	1393.142333984375	859.4390869140625	415.0748901367188	1329.551879882812	792.7382202148438	400.7102966308594	1060.593383789062	756.72509765625	452.9073486328125	1052.37548828125	835.6678466796875	296.9051818847656	832.1100463867188	812.5553588867188	325.0333862304688	818.8596801757812	742.71044921875	374.8236999511719	993.1777954101562	752.064208984375	287.94287109375	660.4733276367188	806.3973999023438	266.3567504882812	730.9602661132812	799.0396728515625	311.3384399414062	734.9227294921875	743.775146484375	425.4315490722656	1609.974365234375	944.5765991210938	257.1150817871094	1615.769653320312	1067.370361328125	264.43505859375	1617.573120117188	966.5042724609375	442.3125	1603.5107421875	1088.716796875	414.90869140625	922.6419677734375	1168.43505859375	404.5397644042969	922.0276489257812	824.4381103515625	299.1687927246094	952.9556884765625	871.9019775390625	289.5086059570312	946.013916015625	1112.116577148438	387.8529968261719	468.6834411621094	1183.84619140625	374.4649963378906	603.4094848632812	1182.947875976562	455.1412353515625	44.83532333374023	1194.26025390625	426.5854797363281	253.7278442382812	1201.685546875	243.8198852539062	42.58650207519531	1147.291259765625	308.5351257324219	34.99753952026367	1103.079956054688	328.5987243652344	42.88950347900391	1215.807250976562	480.8617248535156	39.56606674194336	1123.038452148438	382.6032409667969	462.2836303710938	822.498291015625	434.8177795410156	48.85029983520508	816.457763671875	377.9463195800781	345.9376525878906	823.6882934570312	245.9012145996094	47.91072082519531	876.4142456054688	302.7154846191406	35.46484756469727	913.6859130859375	332.1986083984375	37.2843017578125	800.7922973632812	487.6755065917969	46.66730499267578	861.2472534179688	495.0052795410156	1031.916870117188	987.3023681640625	331.9925842285156	721.3038330078125	811.7362060546875	
4	0.03	488.8095092773438	975.767333984375	928.8225708007812	495.1810302734375	975.37646484375	1057.59423828125	272.2240905761719	1222.312866210938	1016.211669921875	510.3507690429688	1151.310913085938	996.039306640625	474.1805114746094	1399.439208984375	1020.959533691406	317.4348449707031	1347.7529296875	1020.637451171875	518.6512451171875	1262.718139648438	944.3184204101562	487.2990417480469	1358.9072265625	1121.212524414062	405.9954223632812	1377.392822265625	1181.802612304688	420.9201354980469	1254.686889648438	1245.203002929688	395.8897705078125	1050.714111328125	1253.3828125	454.5397033691406	1037.167236328125	1193.802001953125	296.7262573242188	809.368408203125	1208.497680664062	337.7401428222656	797.05810546875	1263.690307617188	379.19580078125	946.960693359375	1258.927978515625	301.4366455078125	643.2764892578125	1211.651000976562	338.9683532714844	727.1558227539062	1257.21240234375	283.8147277832031	731.2766723632812	1224.311279296875	409.2455749511719	1393.100952148438	859.5115356445312	415.1366271972656	1329.512939453125	792.7822265625	400.6144104003906	1060.5185546875	756.8751220703125	452.7142944335938	1052.218994140625	835.9384155273438	296.6004638671875	832.1492919921875	812.7392578125	324.7546691894531	818.8314819335938	742.9570922851562	374.6578369140625	993.0978393554688	752.2450561523438	287.3395080566406	660.509033203125	806.6415405273438	265.7520446777344	731.0790405273438	799.2730102539062	310.8956909179688	734.8674926757812	744.105712890625	425.4531860351562	1609.963623046875	944.6246948242188	257.08349609375	1615.760498046875	1067.3154296875	264.4754943847656	1617.5546875	966.4396362304688	442.2679138183594	1603.489501953125	1088.764526367188	414.6561279296875	922.59814453125	1168.5283203125	404.4159240722656	921.9954223632812	824.6466674804688	299.0406494140625	952.9271850585938	872.0155029296875	289.4242858886719	945.928955078125	1112.141967773438	388.2267456054688	468.7287292480469	1183.76806640625	374.5326232910156	603.4496459960938	1183.015991210938	455.1372680664062	44.8414306640625	1194.240234375	426.8558044433594	253.7878265380859	1201.646484375	243.8099517822266	42.57167816162109	1147.287353515625	308.5329284667969	34.98532485961914	1103.062744140625	328.6061401367188	42.88961791992188	1215.795654296875	480.8678283691406	39.54165649414062	1123.015380859375	382.6291198730469	462.2909545898438	822.58154296875	434.8175048828125	48.85176467895508	816.4584350585938	378.0177307128906	345.9734802246094	823.71728515625	245.8483123779297	47.80945587158203	876.4612426757812	302.691162109375	35.38971328735352	913.6995849609375	332.1966552734375	37.29022216796875	800.8289184570312	487.6717834472656	46.67810440063477	861.2623291015625	494.8117980957031	1031.828735351562	987.408203125	331.112548828125	721.6337890625	811.8167114257812	
